<mxfile host="app.diagrams.net" modified="2023-04-23T09:39:53.823Z" agent="Mozilla/5.0 (Windows NT 10.0; Win64; x64; rv:109.0) Gecko/20100101 Firefox/112.0" etag="228Lz5RNTWGt8At-jDmw" version="21.1.7" type="device">
  <diagram name="Page-1" id="AIwrwDQbSrYMBqKGpSoy">
    <mxGraphModel dx="1035" dy="502" grid="1" gridSize="10" guides="1" tooltips="1" connect="1" arrows="1" fold="1" page="1" pageScale="1" pageWidth="850" pageHeight="1100" math="1" shadow="0">
      <root>
        <mxCell id="0" />
        <mxCell id="1" parent="0" />
        <mxCell id="cLhc_yV0UPWIZMLDZYTa-30" value="" style="rounded=0;whiteSpace=wrap;html=1;rotation=-90;fillStyle=dashed;fillColor=none;dashed=1;" vertex="1" parent="1">
          <mxGeometry x="575" y="175" width="570" height="320" as="geometry" />
        </mxCell>
        <mxCell id="cLhc_yV0UPWIZMLDZYTa-29" value="" style="rounded=0;whiteSpace=wrap;html=1;rotation=-90;fillStyle=dashed;fillColor=none;dashed=1;" vertex="1" parent="1">
          <mxGeometry x="215" y="175" width="570" height="320" as="geometry" />
        </mxCell>
        <mxCell id="DAAtz3eOhXTYEdSk60KF-19" style="edgeStyle=orthogonalEdgeStyle;rounded=0;orthogonalLoop=1;jettySize=auto;html=1;exitX=0.5;exitY=1;exitDx=0;exitDy=0;entryX=0.5;entryY=0;entryDx=0;entryDy=0;fontSize=12;" parent="1" source="DAAtz3eOhXTYEdSk60KF-1" target="DAAtz3eOhXTYEdSk60KF-2" edge="1">
          <mxGeometry relative="1" as="geometry" />
        </mxCell>
        <mxCell id="DAAtz3eOhXTYEdSk60KF-1" value="Sample \(\theta_{i = 1, ..., k}\) from \(N(\theta, \tau^2)\) truncated at {-1, 1}" style="rounded=0;whiteSpace=wrap;html=1;" parent="1" vertex="1">
          <mxGeometry x="360" y="120" width="120" height="60" as="geometry" />
        </mxCell>
        <mxCell id="DAAtz3eOhXTYEdSk60KF-20" style="edgeStyle=orthogonalEdgeStyle;rounded=0;orthogonalLoop=1;jettySize=auto;html=1;exitX=0.5;exitY=1;exitDx=0;exitDy=0;entryX=0.5;entryY=0;entryDx=0;entryDy=0;fontSize=12;" parent="1" source="DAAtz3eOhXTYEdSk60KF-2" target="DAAtz3eOhXTYEdSk60KF-4" edge="1">
          <mxGeometry relative="1" as="geometry" />
        </mxCell>
        <mxCell id="DAAtz3eOhXTYEdSk60KF-2" value="Sample \(\gamma_i\) from \(N(\theta_i, \sigma_i^2)\) truncated at {-1, 1}" style="rounded=0;whiteSpace=wrap;html=1;" parent="1" vertex="1">
          <mxGeometry x="360" y="220" width="120" height="60" as="geometry" />
        </mxCell>
        <mxCell id="DAAtz3eOhXTYEdSk60KF-24" value="" style="edgeStyle=orthogonalEdgeStyle;rounded=0;orthogonalLoop=1;jettySize=auto;html=1;fontSize=12;" parent="1" source="DAAtz3eOhXTYEdSk60KF-3" target="DAAtz3eOhXTYEdSk60KF-2" edge="1">
          <mxGeometry relative="1" as="geometry" />
        </mxCell>
        <mxCell id="DAAtz3eOhXTYEdSk60KF-3" value="&lt;font style=&quot;font-size: 12px;&quot;&gt;$$\sigma_i^2 = \frac{(1-\theta_i^2)^2}{N_i - 1}$$&lt;/font&gt;" style="rounded=0;whiteSpace=wrap;html=1;" parent="1" vertex="1">
          <mxGeometry x="520" y="220" width="120" height="60" as="geometry" />
        </mxCell>
        <mxCell id="DAAtz3eOhXTYEdSk60KF-21" style="edgeStyle=orthogonalEdgeStyle;rounded=0;orthogonalLoop=1;jettySize=auto;html=1;exitX=0.5;exitY=1;exitDx=0;exitDy=0;entryX=0.5;entryY=0;entryDx=0;entryDy=0;fontSize=12;" parent="1" source="DAAtz3eOhXTYEdSk60KF-4" target="DAAtz3eOhXTYEdSk60KF-6" edge="1">
          <mxGeometry relative="1" as="geometry" />
        </mxCell>
        <mxCell id="DAAtz3eOhXTYEdSk60KF-4" value="&lt;font style=&quot;font-size: 12px;&quot;&gt;Sample reliability \(R_i\) for each study from \(N(\bar{R}, \delta)\) truncated at {0, 1}&lt;/font&gt;" style="rounded=0;whiteSpace=wrap;html=1;fontSize=14;" parent="1" vertex="1">
          <mxGeometry x="360" y="320" width="120" height="70" as="geometry" />
        </mxCell>
        <mxCell id="DAAtz3eOhXTYEdSk60KF-22" value="" style="edgeStyle=orthogonalEdgeStyle;rounded=0;orthogonalLoop=1;jettySize=auto;html=1;fontSize=12;" parent="1" source="DAAtz3eOhXTYEdSk60KF-6" target="DAAtz3eOhXTYEdSk60KF-7" edge="1">
          <mxGeometry relative="1" as="geometry" />
        </mxCell>
        <mxCell id="DAAtz3eOhXTYEdSk60KF-6" value="&lt;div&gt;&amp;nbsp;Assuming \(R_i = R_{iXX&#39;} = R_{iYY&#39;}\)&lt;/div&gt;&lt;div&gt;Compute observed effect size &lt;br&gt;&lt;/div&gt;&lt;div&gt;\(r_i = \gamma_i \times R_i\) &lt;br&gt;&lt;/div&gt;" style="rounded=0;whiteSpace=wrap;html=1;fontSize=12;" parent="1" vertex="1">
          <mxGeometry x="360" y="430" width="120" height="80" as="geometry" />
        </mxCell>
        <mxCell id="DAAtz3eOhXTYEdSk60KF-7" value="&lt;div&gt;Meta-analyze \(r_i\) using inverse variance weights and estimate \(\hat{\tau}^2\)&lt;/div&gt;" style="rounded=0;whiteSpace=wrap;html=1;fontSize=12;" parent="1" vertex="1">
          <mxGeometry x="360" y="550" width="120" height="60" as="geometry" />
        </mxCell>
        <mxCell id="DAAtz3eOhXTYEdSk60KF-12" value="" style="shape=curlyBracket;whiteSpace=wrap;html=1;rounded=1;labelPosition=left;verticalLabelPosition=middle;align=right;verticalAlign=middle;fontSize=12;" parent="1" vertex="1">
          <mxGeometry x="300" y="50" width="20" height="570" as="geometry" />
        </mxCell>
        <mxCell id="DAAtz3eOhXTYEdSk60KF-13" value="&lt;div&gt;Replicate \(10^4\) times&lt;/div&gt;&lt;div&gt;&amp;nbsp;for each combination&lt;/div&gt;&lt;div&gt;&amp;nbsp;of parameters&lt;br&gt;&lt;/div&gt;" style="text;html=1;align=center;verticalAlign=middle;resizable=0;points=[];autosize=1;strokeColor=none;fillColor=none;fontSize=12;" parent="1" vertex="1">
          <mxGeometry x="150" y="305" width="150" height="60" as="geometry" />
        </mxCell>
        <mxCell id="DAAtz3eOhXTYEdSk60KF-28" value="" style="edgeStyle=orthogonalEdgeStyle;rounded=0;orthogonalLoop=1;jettySize=auto;html=1;fontSize=12;" parent="1" source="DAAtz3eOhXTYEdSk60KF-27" target="DAAtz3eOhXTYEdSk60KF-7" edge="1">
          <mxGeometry relative="1" as="geometry" />
        </mxCell>
        <mxCell id="DAAtz3eOhXTYEdSk60KF-27" value="&lt;font style=&quot;font-size: 12px;&quot;&gt;$$\hat{\sigma}_i^2 = \frac{(1-r_i^2)^2}{N_i - 1}$$&lt;/font&gt;" style="rounded=0;whiteSpace=wrap;html=1;" parent="1" vertex="1">
          <mxGeometry x="520" y="550" width="120" height="60" as="geometry" />
        </mxCell>
        <mxCell id="cLhc_yV0UPWIZMLDZYTa-7" value="" style="edgeStyle=orthogonalEdgeStyle;rounded=0;orthogonalLoop=1;jettySize=auto;html=1;" edge="1" parent="1" source="cLhc_yV0UPWIZMLDZYTa-1" target="cLhc_yV0UPWIZMLDZYTa-2">
          <mxGeometry relative="1" as="geometry" />
        </mxCell>
        <mxCell id="cLhc_yV0UPWIZMLDZYTa-1" value="Sample \(\theta_{zi = 1, ..., k}\) from \(N(\theta_z, \tau^2)\) " style="rounded=0;whiteSpace=wrap;html=1;" vertex="1" parent="1">
          <mxGeometry x="720" y="120" width="120" height="60" as="geometry" />
        </mxCell>
        <mxCell id="cLhc_yV0UPWIZMLDZYTa-9" value="" style="edgeStyle=orthogonalEdgeStyle;rounded=0;orthogonalLoop=1;jettySize=auto;html=1;" edge="1" parent="1" source="cLhc_yV0UPWIZMLDZYTa-2" target="cLhc_yV0UPWIZMLDZYTa-8">
          <mxGeometry relative="1" as="geometry" />
        </mxCell>
        <mxCell id="cLhc_yV0UPWIZMLDZYTa-2" value="Sample \(\gamma_{zi}\) from \(N(\theta_{zi}, \sigma_i^2)\)" style="rounded=0;whiteSpace=wrap;html=1;" vertex="1" parent="1">
          <mxGeometry x="720" y="220" width="120" height="60" as="geometry" />
        </mxCell>
        <mxCell id="cLhc_yV0UPWIZMLDZYTa-8" value="&lt;font style=&quot;font-size: 12px;&quot;&gt;Sample reliability \(R_i\) for each study from \(N(\bar{R}, \delta)\) truncated at {0, 1}&lt;/font&gt;" style="rounded=0;whiteSpace=wrap;html=1;fontSize=14;" vertex="1" parent="1">
          <mxGeometry x="720" y="320" width="120" height="70" as="geometry" />
        </mxCell>
        <mxCell id="cLhc_yV0UPWIZMLDZYTa-10" style="edgeStyle=orthogonalEdgeStyle;rounded=0;orthogonalLoop=1;jettySize=auto;html=1;exitX=0.5;exitY=1;exitDx=0;exitDy=0;entryX=0.5;entryY=0;entryDx=0;entryDy=0;fontSize=12;" edge="1" parent="1" target="cLhc_yV0UPWIZMLDZYTa-12">
          <mxGeometry relative="1" as="geometry">
            <mxPoint x="780" y="390" as="sourcePoint" />
          </mxGeometry>
        </mxCell>
        <mxCell id="cLhc_yV0UPWIZMLDZYTa-11" value="" style="edgeStyle=orthogonalEdgeStyle;rounded=0;orthogonalLoop=1;jettySize=auto;html=1;fontSize=12;" edge="1" parent="1" source="cLhc_yV0UPWIZMLDZYTa-12" target="cLhc_yV0UPWIZMLDZYTa-13">
          <mxGeometry relative="1" as="geometry" />
        </mxCell>
        <mxCell id="cLhc_yV0UPWIZMLDZYTa-12" value="&lt;div&gt;&amp;nbsp;Assuming \(R_i = R_{iXX&#39;} = R_{iYY&#39;}\)&lt;/div&gt;&lt;div&gt;Compute observed effect size &lt;br&gt;&lt;/div&gt;&lt;div&gt;\(r_i = \gamma_i \times R_i\) &lt;br&gt;&lt;/div&gt;" style="rounded=0;whiteSpace=wrap;html=1;fontSize=12;" vertex="1" parent="1">
          <mxGeometry x="720" y="430" width="120" height="80" as="geometry" />
        </mxCell>
        <mxCell id="cLhc_yV0UPWIZMLDZYTa-13" value="&lt;div&gt;Meta-analyze \(r_{zi}\) using inverse variance weights and estimate \(\hat{\tau}^2\)&lt;/div&gt;" style="rounded=0;whiteSpace=wrap;html=1;fontSize=12;" vertex="1" parent="1">
          <mxGeometry x="720" y="550" width="120" height="60" as="geometry" />
        </mxCell>
        <mxCell id="cLhc_yV0UPWIZMLDZYTa-16" value="" style="edgeStyle=orthogonalEdgeStyle;rounded=0;orthogonalLoop=1;jettySize=auto;html=1;" edge="1" parent="1" source="cLhc_yV0UPWIZMLDZYTa-15">
          <mxGeometry relative="1" as="geometry">
            <mxPoint x="780" y="410" as="targetPoint" />
            <Array as="points">
              <mxPoint x="780" y="410" />
            </Array>
          </mxGeometry>
        </mxCell>
        <mxCell id="cLhc_yV0UPWIZMLDZYTa-15" value="&lt;div&gt;Transform Fisher&#39;s &lt;i&gt;z&lt;/i&gt; to product-moment correlations: &lt;br&gt;&lt;/div&gt;&lt;div&gt;\(\gamma_i = tanh(\gamma_{zi}) \)&lt;br&gt;&lt;/div&gt;" style="rounded=0;whiteSpace=wrap;html=1;" vertex="1" parent="1">
          <mxGeometry x="880" y="350" width="120" height="60" as="geometry" />
        </mxCell>
        <mxCell id="cLhc_yV0UPWIZMLDZYTa-18" value="" style="edgeStyle=orthogonalEdgeStyle;rounded=0;orthogonalLoop=1;jettySize=auto;html=1;" edge="1" parent="1" source="cLhc_yV0UPWIZMLDZYTa-17">
          <mxGeometry relative="1" as="geometry">
            <mxPoint x="780" y="530" as="targetPoint" />
            <Array as="points">
              <mxPoint x="780" y="530" />
            </Array>
          </mxGeometry>
        </mxCell>
        <mxCell id="cLhc_yV0UPWIZMLDZYTa-17" value="&lt;div&gt;Transform product-moment correlations to Fisher&#39;s &lt;i&gt;z&lt;/i&gt;: &lt;br&gt;&lt;/div&gt;&lt;div&gt;\(r_{zi} = artanh(r_i) \)&lt;br&gt;&lt;/div&gt;" style="rounded=0;whiteSpace=wrap;html=1;" vertex="1" parent="1">
          <mxGeometry x="880" y="470" width="120" height="60" as="geometry" />
        </mxCell>
        <mxCell id="cLhc_yV0UPWIZMLDZYTa-24" value="" style="edgeStyle=orthogonalEdgeStyle;rounded=0;orthogonalLoop=1;jettySize=auto;html=1;" edge="1" parent="1" source="cLhc_yV0UPWIZMLDZYTa-23" target="cLhc_yV0UPWIZMLDZYTa-2">
          <mxGeometry relative="1" as="geometry" />
        </mxCell>
        <mxCell id="cLhc_yV0UPWIZMLDZYTa-23" value="&lt;font style=&quot;font-size: 12px;&quot;&gt;$$\sigma_i^2 = \frac{1}{N_i - 3}$$&lt;/font&gt;" style="rounded=0;whiteSpace=wrap;html=1;" vertex="1" parent="1">
          <mxGeometry x="880" y="220" width="120" height="60" as="geometry" />
        </mxCell>
        <mxCell id="cLhc_yV0UPWIZMLDZYTa-25" value="" style="edgeStyle=orthogonalEdgeStyle;rounded=0;orthogonalLoop=1;jettySize=auto;html=1;" edge="1" parent="1" source="cLhc_yV0UPWIZMLDZYTa-26">
          <mxGeometry relative="1" as="geometry">
            <mxPoint x="840" y="580" as="targetPoint" />
          </mxGeometry>
        </mxCell>
        <mxCell id="cLhc_yV0UPWIZMLDZYTa-26" value="&lt;font style=&quot;font-size: 12px;&quot;&gt;$$\hat{\sigma}_i^2 = \frac{1}{N_i - 3}$$&lt;/font&gt;" style="rounded=0;whiteSpace=wrap;html=1;" vertex="1" parent="1">
          <mxGeometry x="880" y="550" width="120" height="60" as="geometry" />
        </mxCell>
        <mxCell id="cLhc_yV0UPWIZMLDZYTa-27" value="&lt;div style=&quot;font-size: 13px;&quot; align=&quot;left&quot;&gt;&lt;font style=&quot;font-size: 14px;&quot;&gt;Product-moment correlations&lt;/font&gt;&lt;/div&gt;" style="text;html=1;strokeColor=none;fillColor=none;align=left;verticalAlign=middle;whiteSpace=wrap;rounded=0;" vertex="1" parent="1">
          <mxGeometry x="360" y="60" width="120" height="30" as="geometry" />
        </mxCell>
        <mxCell id="cLhc_yV0UPWIZMLDZYTa-28" value="&lt;div style=&quot;font-size: 14px;&quot; align=&quot;left&quot;&gt;Fisher&#39;s &lt;i&gt;z&lt;/i&gt; correlations&lt;/div&gt;" style="text;html=1;strokeColor=none;fillColor=none;align=left;verticalAlign=middle;whiteSpace=wrap;rounded=0;" vertex="1" parent="1">
          <mxGeometry x="720" y="60" width="120" height="30" as="geometry" />
        </mxCell>
      </root>
    </mxGraphModel>
  </diagram>
</mxfile>
